<svg width="87" height="93" viewBox="0 0 87 93" fill="none" xmlns="http://www.w3.org/2000/svg">
<path d="M0 83.0693H3.37615C4.91201 83.0693 5.89715 84.0305 5.89715 85.1833C5.9145 85.5787 5.81298 85.9702 5.60568 86.3074C5.39838 86.6446 5.09482 86.9119 4.73414 87.0749C5.65429 87.417 6.34526 88.06 6.34526 89.2778C6.34526 90.9026 5.15488 92.0143 3.23591 92.0143H0V83.0693ZM3.16066 86.49C3.39653 86.49 3.62274 86.3963 3.78953 86.2295C3.95632 86.0627 4.05002 85.8365 4.05002 85.6006C4.05002 85.3647 3.95632 85.1385 3.78953 84.9717C3.62274 84.8049 3.39653 84.7112 3.16066 84.7112H1.89502V86.49H3.16066ZM3.12303 90.2903C3.95424 90.2903 4.44339 89.9482 4.44339 89.1649C4.44339 88.3816 3.95424 88.0258 3.12303 88.0258H1.89502V90.2903H3.12303Z" fill="white"/>
<path d="M13.4264 89.2906H8.7299C8.74925 89.6781 8.91715 90.0432 9.19871 90.3101C9.48027 90.577 9.85385 90.7252 10.2418 90.7238C10.5525 90.7493 10.8626 90.6679 11.1208 90.4931C11.3789 90.3183 11.5697 90.0606 11.6614 89.7626H13.3717C13.0672 91.3122 11.9282 92.2084 10.2384 92.2084C8.25443 92.2084 6.94775 90.7478 6.94775 88.8664C6.93581 88.4305 7.01172 87.9967 7.17096 87.5907C7.3302 87.1848 7.56952 86.815 7.87465 86.5035C8.17979 86.192 8.5445 85.9451 8.94707 85.7775C9.34963 85.6099 9.78181 85.525 10.2179 85.5279C12.2155 85.5279 13.4161 86.7422 13.4161 89.0067L13.4264 89.2906ZM8.81883 87.9463H11.7503C11.661 87.6264 11.4619 87.3482 11.1879 87.1606C10.9139 86.9729 10.5826 86.8878 10.2521 86.9201C9.93575 86.9193 9.62717 87.0179 9.36997 87.2021C9.11277 87.3862 8.91997 87.6466 8.81883 87.9463Z" fill="white"/>
<path d="M14.0283 89.9541H15.8447C15.8384 90.0494 15.8522 90.1449 15.885 90.2345C15.9179 90.3242 15.9692 90.4059 16.0356 90.4745C16.1019 90.5432 16.1819 90.5971 16.2704 90.633C16.3589 90.6688 16.4539 90.6858 16.5493 90.6827C16.9701 90.6827 17.2334 90.4809 17.2334 90.1594C17.2334 89.8378 16.953 89.6223 16.3783 89.4547L15.5437 89.2118C15.1428 89.1279 14.7834 88.9074 14.527 88.588C14.2706 88.2686 14.133 87.8701 14.1378 87.4605C14.1378 86.2941 15.1879 85.5278 16.4912 85.5278C17.9757 85.5278 18.7967 86.3727 18.7967 87.5494H17.1069C17.1065 87.4681 17.0897 87.3878 17.0576 87.3131C17.0255 87.2385 16.9787 87.171 16.9199 87.1148C16.8612 87.0587 16.7918 87.0149 16.7157 86.9861C16.6397 86.9573 16.5587 86.9442 16.4775 86.9474C16.1354 86.9474 15.8789 87.1526 15.8789 87.3955C15.8789 87.6384 16.1081 87.8299 16.6075 87.9702L17.5276 88.2267C18.3725 88.4559 18.9609 89.034 18.9609 89.9815C18.9609 91.1719 18.027 92.2083 16.5288 92.2083C15.14 92.2083 14.0283 91.3497 14.0283 89.9541Z" fill="white"/>
<path d="M22.0531 87.1909V89.6093C22.0391 89.7133 22.0493 89.8192 22.0828 89.9188C22.1163 90.0183 22.1722 90.1087 22.2463 90.1832C22.3204 90.2576 22.4106 90.3139 22.51 90.3479C22.6094 90.3818 22.7152 90.3924 22.8193 90.3789H23.5377V92.0276H22.2447C21.0782 92.0276 20.2607 91.2477 20.2607 89.9308V87.1943H19.3508V85.6927H20.2607V84.0815H22.0531V85.6927H23.5377V87.1772L22.0531 87.1909Z" fill="white"/>
<path d="M26.9136 88.866C26.8979 88.1863 27.0852 87.5174 27.4514 86.9446C27.8176 86.3719 28.3462 85.9212 28.9697 85.6502C29.5932 85.3792 30.2833 85.3002 30.952 85.4231C31.6206 85.5461 32.2374 85.8655 32.7237 86.3406C33.21 86.8157 33.5437 87.4249 33.6822 88.0905C33.8207 88.7561 33.7577 89.4479 33.5012 90.0775C33.2448 90.7072 32.8066 91.2461 32.2425 91.6255C31.6784 92.005 31.014 92.2078 30.3342 92.2079C29.886 92.2292 29.4383 92.1579 29.0188 91.9986C28.5994 91.8392 28.2173 91.5951 27.8964 91.2815C27.5755 90.968 27.3226 90.5917 27.1535 90.1761C26.9844 89.7605 26.9027 89.3145 26.9136 88.866ZM31.959 88.866C31.9496 88.5462 31.8461 88.2362 31.6616 87.9748C31.4771 87.7134 31.2196 87.5122 30.9214 87.3963C30.6232 87.2804 30.2974 87.2549 29.9848 87.323C29.6721 87.3911 29.3865 87.5499 29.1636 87.7794C28.9406 88.0089 28.7902 88.299 28.7312 88.6134C28.6722 88.9279 28.7071 89.2528 28.8316 89.5475C28.9561 89.8423 29.1647 90.0938 29.4313 90.2707C29.698 90.4476 30.0108 90.542 30.3308 90.5421C30.5503 90.5481 30.7687 90.5085 30.9722 90.4258C31.1757 90.3431 31.3597 90.219 31.5128 90.0615C31.6658 89.9039 31.7845 89.7163 31.8613 89.5105C31.9381 89.3048 31.9714 89.0853 31.959 88.866Z" fill="white"/>
<path d="M36.7482 85.4867V85.692H38.2327V87.1765H36.7482V92.0133H34.9558V87.1902H34.0459V85.692H34.9558V85.2815C34.9558 83.8346 35.9033 83.0547 37.0663 83.0547H38.2327V84.7068H37.5144C37.4093 84.6929 37.3024 84.7037 37.2021 84.7382C37.1019 84.7727 37.011 84.83 36.9367 84.9056C36.8624 84.9812 36.8067 85.0731 36.774 85.174C36.7413 85.2748 36.7324 85.3819 36.7482 85.4867Z" fill="white"/>
<path d="M44.0402 87.1909V89.6093C44.0262 89.7133 44.0363 89.8192 44.0698 89.9188C44.1033 90.0183 44.1593 90.1087 44.2334 90.1832C44.3075 90.2576 44.3977 90.3139 44.497 90.3479C44.5964 90.3818 44.7023 90.3924 44.8064 90.3789H45.5247V92.0276H44.2317C43.0687 92.0276 42.2478 91.2477 42.2478 89.9308V87.1943H41.3447V85.6927H42.2512V84.0815H44.0436V85.6927H45.5281V87.1772L44.0402 87.1909Z" fill="white"/>
<path d="M46.5178 83.0693H48.3102V86.5652C48.5246 86.2314 48.8238 85.9605 49.1772 85.7802C49.5306 85.5999 49.9255 85.5167 50.3216 85.539C51.5735 85.539 52.456 86.4215 52.456 87.8685V92.0382H50.667V88.3781C50.6757 88.2181 50.6516 88.0579 50.5963 87.9074C50.5409 87.7569 50.4555 87.6193 50.3453 87.5029C50.235 87.3866 50.1022 87.2939 49.9549 87.2305C49.8076 87.1672 49.649 87.1345 49.4886 87.1345C49.3283 87.1345 49.1697 87.1672 49.0224 87.2305C48.8751 87.2939 48.7423 87.3866 48.632 87.5029C48.5217 87.6193 48.4363 87.7569 48.381 87.9074C48.3257 88.0579 48.3016 88.2181 48.3102 88.3781V92.0382H46.5178V83.0693Z" fill="white"/>
<path d="M59.8168 89.2906H55.1203C55.1388 89.6784 55.3064 90.044 55.5882 90.3111C55.8699 90.5782 56.244 90.7261 56.6322 90.7239C56.9429 90.7494 57.253 90.668 57.5112 90.4932C57.7693 90.3184 57.96 90.0607 58.0518 89.7627H59.7621C59.4542 91.3122 58.3151 92.2084 56.6288 92.2084C54.6448 92.2084 53.3381 90.7478 53.3381 88.8665C53.3262 88.43 53.4023 87.9956 53.562 87.5892C53.7216 87.1828 53.9615 86.8127 54.2674 86.5011C54.5733 86.1895 54.9388 85.9427 55.3422 85.7755C55.7455 85.6083 56.1785 85.5241 56.6151 85.528C58.6093 85.528 59.8134 86.7423 59.8134 89.0067L59.8168 89.2906ZM55.2092 87.9463H58.1407C58.0514 87.6265 57.8523 87.3483 57.5783 87.1606C57.3043 86.973 56.973 86.8878 56.6425 86.9202C56.326 86.9188 56.0172 87.0172 55.7599 87.2015C55.5026 87.3857 55.3099 87.6463 55.2092 87.9463Z" fill="white"/>
<path d="M63.4629 83.0693H66.8288C68.3646 83.0693 69.3532 84.0305 69.3532 85.1833C69.3698 85.579 69.2676 85.9706 69.0597 86.3077C68.8518 86.6449 68.5478 86.912 68.1868 87.0749C69.1069 87.417 69.7979 88.06 69.7979 89.2778C69.7979 90.9026 68.6109 92.0143 66.6885 92.0143H63.4629V83.0693ZM66.627 86.49C66.8628 86.49 67.0891 86.3963 67.2558 86.2295C67.4226 86.0627 67.5163 85.8365 67.5163 85.6006C67.5163 85.3647 67.4226 85.1385 67.2558 84.9717C67.0891 84.8049 66.8628 84.7112 66.627 84.7112H65.3579V86.49H66.627ZM66.5859 90.2903C67.4205 90.2903 67.9063 89.9482 67.9063 89.1649C67.9063 88.3816 67.4205 88.0258 66.5859 88.0258H65.3579V90.2903H66.5859Z" fill="white"/>
<path d="M76.8922 89.2906H72.1923C72.2117 89.6781 72.3796 90.0433 72.6611 90.3102C72.9427 90.5771 73.3163 90.7252 73.7042 90.7239C74.0149 90.7494 74.325 90.668 74.5832 90.4932C74.8414 90.3184 75.0321 90.0607 75.1238 89.7627H76.8341C76.5262 91.3122 75.3872 92.2084 73.6974 92.2084C71.7134 92.2084 70.4067 90.7478 70.4067 88.8665C70.3948 88.43 70.4709 87.9956 70.6306 87.5892C70.7902 87.1828 71.0302 86.8127 71.336 86.5011C71.6419 86.1895 72.0074 85.9427 72.4108 85.7755C72.8141 85.6083 73.2471 85.5241 73.6837 85.528C75.6813 85.528 76.8854 86.7423 76.8854 89.0067L76.8922 89.2906ZM72.2847 87.9463H75.2093C75.1201 87.6271 74.9215 87.3494 74.6482 87.1618C74.375 86.9742 74.0444 86.8887 73.7145 86.9202C73.3986 86.9195 73.0906 87.0183 72.834 87.2025C72.5773 87.3866 72.3852 87.6469 72.2847 87.9463Z" fill="white"/>
<path d="M77.4905 89.9541H79.3137C79.3074 90.0494 79.3212 90.1449 79.354 90.2345C79.3869 90.3242 79.4382 90.4059 79.5046 90.4745C79.5709 90.5432 79.6509 90.5971 79.7394 90.633C79.8279 90.6688 79.9229 90.6858 80.0183 90.6827C80.4425 90.6827 80.7024 90.4809 80.7024 90.1594C80.7024 89.8378 80.4219 89.6223 79.8473 89.4547L79.0126 89.2118C78.6118 89.1279 78.2524 88.9074 77.996 88.588C77.7396 88.2686 77.602 87.8701 77.6068 87.4605C77.6068 86.2941 78.6569 85.5278 79.9602 85.5278C81.4447 85.5278 82.2657 86.3727 82.2657 87.5494H80.5759C80.5755 87.4684 80.5588 87.3884 80.5269 87.314C80.495 87.2395 80.4485 87.1722 80.3901 87.1161C80.3318 87.06 80.2627 87.0161 80.1871 86.9872C80.1115 86.9582 80.0308 86.9447 79.9499 86.9474C79.5907 86.9474 79.3479 87.1526 79.3479 87.3955C79.3479 87.6384 79.5771 87.8299 80.0765 87.9702L80.9966 88.2267C81.8415 88.4559 82.4333 89.034 82.4333 89.9815C82.4333 91.1719 81.496 92.2083 80.0012 92.2083C78.6056 92.2083 77.4905 91.3497 77.4905 89.9541Z" fill="white"/>
<path d="M85.5155 87.1909V89.6093C85.5015 89.7133 85.5117 89.8192 85.5452 89.9188C85.5787 90.0183 85.6346 90.1087 85.7087 90.1832C85.7828 90.2576 85.873 90.3139 85.9724 90.3479C86.0718 90.3818 86.1776 90.3924 86.2817 90.3789H87.0001V92.0276H85.7071C84.5441 92.0276 83.7231 91.2477 83.7231 89.9308V87.1943H82.8167V85.6927H83.7231V84.0815H85.5155V85.6927H87.0001V87.1772L85.5155 87.1909Z" fill="white"/>
<path d="M30.1927 78.09C30.1927 78.09 27.3264 75.8852 22.1727 75.2788C17.0603 74.6725 13.2432 77.401 13.2432 77.401C13.2432 77.401 16.6882 78.8203 21.9246 79.344C27.1611 79.8676 30.1927 78.09 30.1927 78.09Z" fill="white"/>
<path d="M22.1588 73.5553C22.1588 73.5553 19.5819 70.8957 14.7864 69.063C9.99093 67.2302 5.33325 68.3602 5.33325 68.3602C5.33325 68.3602 8.2822 71.1575 13.3946 73.1143C18.507 75.0711 22.1588 73.5553 22.1588 73.5553Z" fill="white"/>
<path d="M14.4967 67.2583C14.4967 67.2583 12.9946 63.5928 8.99841 59.8997C5.00218 56.2066 0 55.5728 0 55.5728C0 55.5728 1.80519 59.5276 6.06325 63.455C10.3213 67.3823 14.4967 67.2583 14.4967 67.2583Z" fill="white"/>
<path d="M12.994 60.2169C12.994 60.2169 12.498 56.262 9.60413 51.6595C6.71031 47.0569 2.06641 45.1553 2.06641 45.1553C2.06641 45.1553 2.78297 49.4685 5.86972 54.3742C8.94269 59.2799 12.994 60.2169 12.994 60.2169Z" fill="white"/>
<path d="M13.1742 50.7922C13.1742 50.7922 13.0364 46.7546 10.6111 41.8213C8.18579 36.9018 3.80371 34.5454 3.80371 34.5454C3.80371 34.5454 4.13443 38.9688 6.71131 44.2191C9.30198 49.4693 13.1742 50.7922 13.1742 50.7922Z" fill="white"/>
<path d="M24.6387 70.8819C24.6387 70.8819 23.4398 67.8779 20.2015 64.8324C16.9632 61.787 12.8843 61.2358 12.8843 61.2358C12.8843 61.2358 14.3312 64.4742 17.7762 67.7125C21.2212 70.9508 24.6387 70.8819 24.6387 70.8819Z" fill="white"/>
<path d="M32.7965 75.3605C32.7965 75.3605 31.1291 73.7345 28.0975 72.5494C25.0658 71.3643 22.1858 71.9431 22.1858 71.9431C22.1858 71.9431 24.0874 73.6656 27.3258 74.9196C30.5503 76.1736 32.7965 75.3605 32.7965 75.3605Z" fill="white"/>
<path d="M40.7196 76.9738C40.7196 76.9738 38.9833 76.2572 36.4064 76.3537C33.8295 76.4501 31.9141 77.8557 31.9141 77.8557C31.9141 77.8557 33.8433 78.5585 36.5993 78.4758C39.3415 78.3656 40.7196 76.9738 40.7196 76.9738Z" fill="white"/>
<path d="M21.0691 63.6069C21.0691 63.6069 20.5041 60.4099 17.9685 56.7582C15.433 53.1202 11.5608 51.7422 11.5608 51.7422C11.5608 51.7422 12.3187 55.2286 15.0196 59.1145C17.7343 62.9868 21.0691 63.6069 21.0691 63.6069Z" fill="white"/>
<path d="M17.8731 53.8503C17.8731 53.8503 18.4932 50.5982 17.4459 46.2437C16.3987 41.8892 13.3395 39.2158 13.3395 39.2158C13.3395 39.2158 12.802 42.7987 13.9045 47.4425C15.0206 52.0864 17.8731 53.8503 17.8731 53.8503Z" fill="white"/>
<path d="M56.5117 78.09C56.5117 78.09 59.378 75.8852 64.5317 75.2788C69.6442 74.6725 73.4613 77.401 73.4613 77.401C73.4613 77.401 70.0162 78.8203 64.7798 79.344C59.5433 79.8676 56.5117 78.09 56.5117 78.09Z" fill="white"/>
<path d="M64.5461 73.5553C64.5461 73.5553 67.123 70.8957 71.9185 69.063C76.714 67.2302 81.3717 68.3602 81.3717 68.3602C81.3717 68.3602 78.4227 71.1575 73.3103 73.1143C68.1979 75.0711 64.5461 73.5553 64.5461 73.5553Z" fill="white"/>
<path d="M72.2075 67.2583C72.2075 67.2583 73.7096 63.5928 77.7058 59.8997C81.702 56.2066 86.7042 55.5728 86.7042 55.5728C86.7042 55.5728 84.899 59.5276 80.641 63.455C76.3829 67.3823 72.2075 67.2583 72.2075 67.2583Z" fill="white"/>
<path d="M73.71 60.2169C73.71 60.2169 74.206 56.262 77.0999 51.6595C79.9937 47.0569 84.6376 45.1553 84.6376 45.1553C84.6376 45.1553 83.921 49.4685 80.8343 54.3742C77.7613 59.2799 73.71 60.2169 73.71 60.2169Z" fill="white"/>
<path d="M73.5305 50.7922C73.5305 50.7922 73.6683 46.7546 76.0936 41.8213C78.5189 36.9018 82.901 34.5454 82.901 34.5454C82.901 34.5454 82.5703 38.9688 79.9934 44.2191C77.4027 49.4693 73.5305 50.7922 73.5305 50.7922Z" fill="white"/>
<path d="M62.0654 70.8819C62.0654 70.8819 63.2643 67.8779 66.5026 64.8324C69.7409 61.787 73.8199 61.2358 73.8199 61.2358C73.8199 61.2358 72.373 64.4742 68.9279 67.7125C65.4829 70.9508 62.0654 70.8819 62.0654 70.8819Z" fill="white"/>
<path d="M53.9075 75.3605C53.9075 75.3605 55.5749 73.7345 58.6065 72.5494C61.6381 71.3643 64.5182 71.9431 64.5182 71.9431C64.5182 71.9431 62.6165 73.6656 59.3782 74.9196C56.1536 76.1736 53.9075 75.3605 53.9075 75.3605Z" fill="white"/>
<path d="M45.9841 76.9738C45.9841 76.9738 47.7204 76.2572 50.2973 76.3537C52.8742 76.4501 54.7896 77.8557 54.7896 77.8557C54.7896 77.8557 52.8604 78.5585 50.1044 78.4758C47.3621 78.3656 45.9841 76.9738 45.9841 76.9738Z" fill="white"/>
<path d="M65.6345 63.6069C65.6345 63.6069 66.1995 60.4099 68.735 56.7582C71.2706 53.1202 75.1428 51.7422 75.1428 51.7422C75.1428 51.7422 74.3849 55.2286 71.684 59.1145C68.9693 62.9868 65.6345 63.6069 65.6345 63.6069Z" fill="white"/>
<path d="M68.8319 53.8503C68.8319 53.8503 68.2118 50.5982 69.2591 46.2437C70.3064 41.8892 73.3656 39.2158 73.3656 39.2158C73.3656 39.2158 73.903 42.7987 72.8006 47.4425C71.6844 52.0864 68.8319 53.8503 68.8319 53.8503Z" fill="white"/>
<path d="M44.6612 78.1158C44.6612 78.8461 44.0686 79.4249 43.3521 79.4249C42.6355 79.4249 42.043 78.8323 42.043 78.1158C42.043 77.3854 42.6355 76.8066 43.3521 76.8066C44.0686 76.8066 44.6612 77.3992 44.6612 78.1158Z" fill="white"/>
<path d="M43.3522 28.2749C30.2887 28.2749 19.7056 38.858 19.7056 51.9216C19.7056 64.9851 30.2887 75.5683 43.3522 75.5683C56.4158 75.5683 66.9989 64.9851 66.9989 51.9216C66.9989 38.8718 56.4158 28.2749 43.3522 28.2749ZM43.3522 73.1981C31.6116 73.1981 22.0895 63.676 22.0895 51.9354C22.0895 40.1947 31.6116 30.6726 43.3522 30.6726C55.0929 30.6726 64.615 40.1947 64.615 51.9354C64.615 63.676 55.0929 73.1981 43.3522 73.1981Z" fill="white"/>
<path d="M43.3519 44.8652C41.3951 44.8652 39.5348 45.2511 37.8398 45.9676C40.9679 47.1665 43.3519 49.9639 43.3519 53.2298C43.3519 49.9639 45.7221 47.1665 48.8639 45.9676C47.169 45.2511 45.3087 44.8652 43.3519 44.8652Z" fill="white"/>
<path d="M36.0202 48.4058C33.2779 48.4058 31.0593 50.6244 31.0593 53.3666C31.0593 56.1088 33.2779 58.3274 36.0202 58.3274C38.7624 58.3274 40.981 56.1088 40.981 53.3666C40.981 50.6381 38.7624 48.4058 36.0202 48.4058ZM36.0202 55.971C34.587 55.971 33.4157 54.7997 33.4157 53.3666C33.4157 51.9335 34.587 50.7622 36.0202 50.7622C37.4533 50.7622 38.6246 51.9335 38.6246 53.3666C38.6108 54.8135 37.4533 55.971 36.0202 55.971Z" fill="white"/>
<path d="M50.683 48.4058C47.9408 48.4058 45.7222 50.6244 45.7222 53.3666C45.7222 56.1088 47.9408 58.3274 50.683 58.3274C53.4253 58.3274 55.6439 56.1088 55.6439 53.3666C55.6439 50.6381 53.4253 48.4058 50.683 48.4058ZM50.683 55.971C49.2499 55.971 48.0786 54.7997 48.0786 53.3666C48.0786 51.9335 49.2499 50.7622 50.683 50.7622C52.1161 50.7622 53.2875 51.9335 53.2875 53.3666C53.2875 54.8135 52.1161 55.971 50.683 55.971Z" fill="white"/>
<path d="M43.3517 33.0557C32.9201 33.0557 24.4729 41.5167 24.4729 51.9344C24.4729 62.366 32.9339 70.8132 43.3517 70.8132C53.7694 70.8132 62.2304 62.3522 62.2304 51.9344C62.2304 41.5029 53.7832 33.0557 43.3517 33.0557ZM50.6827 60.7124C48.7535 60.7124 47.0034 59.9682 45.6943 58.7556L43.3379 61.3187L40.9953 58.7556C39.6861 59.9682 37.9361 60.7124 36.0069 60.7124C31.9555 60.7124 28.6758 57.4327 28.6758 53.3813C28.6758 51.2316 29.5991 49.3024 31.0736 47.9657L28.6758 45.3613H34.0087C36.6683 43.5423 39.8791 42.4813 43.3517 42.4813C46.8242 42.4813 50.0488 43.5423 52.7084 45.3613H58.0275L55.6297 47.9657C57.1042 49.3024 58.0275 51.2454 58.0275 53.3813C58.0275 57.4327 54.734 60.7124 50.6827 60.7124Z" fill="white"/>
<path fill-rule="evenodd" clip-rule="evenodd" d="M18.619 2.78045H15.6713V11.384H13.3876V2.78045H10.4399V0.706055H18.619V2.78045Z" fill="white"/>
<path fill-rule="evenodd" clip-rule="evenodd" d="M23.3559 3.47266V5.57199H22.1876C21.3355 5.57199 20.9248 5.98269 20.9248 6.83528V11.2707H18.7148V3.47266H20.7669V4.92499C20.9408 3.88336 21.6512 3.47266 22.3927 3.47266H23.3559Z" fill="white"/>
<path fill-rule="evenodd" clip-rule="evenodd" d="M29.9681 7.37138C29.9681 6.12416 29.0527 5.30323 27.9161 5.30323C26.7794 5.30323 25.8635 6.12416 25.8635 7.37138C25.8635 8.6186 26.7794 9.43905 27.9161 9.43905C29.0527 9.43905 29.9681 8.6186 29.9681 7.37138ZM23.6541 7.37218C23.6541 5.08332 25.2798 3.25195 27.5214 3.25195C28.6264 3.25195 29.4468 3.59932 29.9681 4.13574V3.47314H32.0207V11.2712H29.9681V10.3241C29.4634 11.0028 28.7209 11.4924 27.4581 11.4924C25.2642 11.4924 23.6541 9.66103 23.6541 7.37218Z" fill="white"/>
<path fill-rule="evenodd" clip-rule="evenodd" d="M32.8899 3.47266H35.2581L36.442 7.59288C36.5838 8.06644 36.6627 8.38214 36.7417 8.7451C36.8206 8.38214 36.8995 8.06644 37.0418 7.59288L38.2257 3.47266H40.5935L38.0045 11.2707H35.4793L32.8899 3.47266Z" fill="white"/>
<path fill-rule="evenodd" clip-rule="evenodd" d="M42.8779 6.23471H46.4924C46.2717 5.46105 45.6559 4.9563 44.6455 4.9563C43.8406 4.9563 43.1619 5.44545 42.8779 6.23471ZM48.5599 7.89252H42.7666C42.8611 8.96629 43.6665 9.66103 44.6292 9.66103C45.529 9.66103 46.1921 9.187 46.3816 8.47667H48.497C48.118 10.387 46.7129 11.4919 44.6292 11.4919C42.1825 11.4919 40.5723 9.69222 40.5723 7.3717C40.5723 4.94059 42.4192 3.25195 44.6136 3.25195C47.0763 3.25195 48.5599 4.75108 48.5599 7.54515V7.89252Z" fill="white"/>
<path fill-rule="evenodd" clip-rule="evenodd" d="M49.5969 11.2708H51.8073V0.220703H49.5969V11.2708Z" fill="white"/>
<path fill-rule="evenodd" clip-rule="evenodd" d="M55.0644 6.23471H58.6789C58.4582 5.46105 57.8424 4.9563 56.832 4.9563C56.0271 4.9563 55.3484 5.44545 55.0644 6.23471ZM60.7464 7.89252H54.9531C55.0476 8.96629 55.853 9.66103 56.8157 9.66103C57.7155 9.66103 58.3786 9.187 58.5681 8.47667H60.6835C60.3045 10.387 58.8994 11.4919 56.8157 11.4919C54.369 11.4919 52.7588 9.69222 52.7588 7.3717C52.7588 4.94059 54.6058 3.25195 56.8001 3.25195C59.2629 3.25195 60.7464 4.75108 60.7464 7.54515V7.89252Z" fill="white"/>
<path fill-rule="evenodd" clip-rule="evenodd" d="M66.4333 3.47266V5.57199H65.265C64.4129 5.57199 64.0022 5.98269 64.0022 6.83528V11.2707H61.7922V3.47266H63.8443V4.92499C64.0182 3.88336 64.7286 3.47266 65.4701 3.47266H66.4333Z" fill="white"/>
<path fill-rule="evenodd" clip-rule="evenodd" d="M67.0334 8.71392H69.275C69.275 9.25081 69.6063 9.61377 70.1432 9.61377C70.6645 9.61377 70.9802 9.3614 70.9802 8.96677C70.9802 8.54047 70.6324 8.30369 69.922 8.09811L68.896 7.79847C67.8704 7.49836 67.1601 6.77243 67.1601 5.6358C67.1601 4.19907 68.4541 3.25195 70.0643 3.25195C71.8952 3.25195 72.9056 4.29359 72.9056 5.74639H70.8224C70.8224 5.36736 70.5223 5.0044 70.0487 5.0044C69.6063 5.0044 69.3067 5.25677 69.3067 5.55688C69.3067 5.91984 69.5907 6.09376 70.2066 6.26721L71.3427 6.58292C72.3848 6.86696 73.1108 7.57729 73.1108 8.74558C73.1108 10.2135 71.9585 11.4924 70.1116 11.4924C68.4069 11.4924 67.0334 10.4347 67.0334 8.71392Z" fill="white"/>
<path fill-rule="evenodd" clip-rule="evenodd" d="M73.998 3.80452H74.2031C74.7395 3.80452 75.2291 3.52048 75.3241 2.71515C75.2291 2.76241 75.1341 2.77848 75.0084 2.77848C74.2347 2.77848 73.6345 2.19433 73.6345 1.38948C73.6345 0.615812 74.2503 0 75.024 0C76.0184 0 76.5709 0.91592 76.5709 2.11541C76.5709 4.0413 75.6398 4.94115 74.3293 4.94115H73.998V3.80452Z" fill="white"/>
<path fill-rule="evenodd" clip-rule="evenodd" d="M19.1338 19.9462C19.1338 16.5519 21.6599 14.2002 24.7063 14.2002C27.6739 14.2002 29.5369 15.8416 29.9627 18.4622H27.5793C27.232 17.1677 26.1903 16.3785 24.7063 16.3785C22.9227 16.3785 21.4699 17.8308 21.4699 19.9462C21.4699 22.0616 22.9227 23.5139 24.7063 23.5139C26.1743 23.5139 27.232 22.7559 27.5793 21.4141H30.0105C29.5369 24.0664 27.4532 25.6922 24.7063 25.6922C21.6122 25.6922 19.1338 23.34 19.1338 19.9462Z" fill="white"/>
<path fill-rule="evenodd" clip-rule="evenodd" d="M31.0137 14.4209H33.2241V18.7306C33.571 18.0832 34.4548 17.4518 35.702 17.4518C37.2488 17.4518 38.3382 18.5411 38.3382 20.3248V25.471H36.1283V20.9562C36.1283 20.0407 35.5129 19.4093 34.6759 19.4093C33.8394 19.4093 33.2241 20.0407 33.2241 20.9562V25.471H31.0137V14.4209Z" fill="white"/>
<path fill-rule="evenodd" clip-rule="evenodd" d="M45.4105 21.5719C45.4105 20.3247 44.5423 19.5037 43.4057 19.5037C42.269 19.5037 41.4009 20.3247 41.4009 21.5719C41.4009 22.8191 42.269 23.6395 43.4057 23.6395C44.5423 23.6395 45.4105 22.8191 45.4105 21.5719ZM39.1914 21.5724C39.1914 19.2835 40.8644 17.4521 43.4062 17.4521C45.9479 17.4521 47.6209 19.2835 47.6209 21.5724C47.6209 23.8612 45.9479 25.6926 43.4062 25.6926C40.8644 25.6926 39.1914 23.8612 39.1914 21.5724Z" fill="white"/>
<path fill-rule="evenodd" clip-rule="evenodd" d="M48.5181 25.4718H50.7285V17.6738H48.5181V25.4718ZM48.2341 15.2899C48.2341 14.5162 48.8499 13.9004 49.6236 13.9004C50.3973 13.9004 51.0126 14.5162 51.0126 15.2899C51.0126 16.0631 50.3973 16.6789 49.6236 16.6789C48.8499 16.6789 48.2341 16.0631 48.2341 15.2899Z" fill="white"/>
<path fill-rule="evenodd" clip-rule="evenodd" d="M51.6475 21.5724C51.6475 19.2835 53.3049 17.4521 55.7677 17.4521C58.2305 17.4521 59.5561 18.7622 59.7929 20.5936H57.488C57.2673 19.9466 56.7148 19.5042 55.7677 19.5042C54.7728 19.5042 53.8574 20.3252 53.8574 21.5724C53.8574 22.8196 54.7572 23.64 55.7677 23.64C56.6987 23.64 57.2356 23.2298 57.488 22.5511H59.7929C59.4299 24.461 58.1515 25.6926 55.7677 25.6926C53.3049 25.6926 51.6475 23.8612 51.6475 21.5724Z" fill="white"/>
<path fill-rule="evenodd" clip-rule="evenodd" d="M62.543 20.4349H66.1575C65.9368 19.6613 65.321 19.1565 64.3105 19.1565C63.5057 19.1565 62.827 19.6457 62.543 20.4349ZM68.2254 22.0927H62.4321C62.5266 23.1665 63.332 23.8612 64.2947 23.8612C65.1945 23.8612 65.8576 23.3872 66.0471 22.6769H68.1625C67.7835 24.5872 66.3784 25.6921 64.2947 25.6921C61.848 25.6921 60.2378 23.8924 60.2378 21.5719C60.2378 19.1408 62.0848 17.4521 64.2791 17.4521C66.7419 17.4521 68.2254 18.9513 68.2254 21.7453V22.0927Z" fill="white"/>
<path fill-rule="evenodd" clip-rule="evenodd" d="M67.3694 14.6963H68.9106V15.0248H68.3189V16.7673H67.9611V15.0248H67.3694V14.6963Z" fill="white"/>
<path fill-rule="evenodd" clip-rule="evenodd" d="M70.2044 16.2493L69.6425 14.6963H69.2129V16.7673H69.5565V15.6103C69.5565 15.4978 69.5475 15.4033 69.5385 15.2937L70.0745 16.7673H70.3344L70.867 15.2937C70.858 15.4033 70.8491 15.4978 70.8491 15.6103V16.7673H71.1955V14.6963H70.7635L70.2044 16.2493Z" fill="white"/>
</svg>
